<?xml version="1.0" encoding="utf-8"?>
<!-- Generator: Adobe Illustrator 18.1.0, SVG Export Plug-In . SVG Version: 6.00 Build 0)  -->
<!DOCTYPE svg PUBLIC "-//W3C//DTD SVG 1.1//EN" "http://www.w3.org/Graphics/SVG/1.1/DTD/svg11.dtd">
<svg version="1.1" id="Layer_1" xmlns="http://www.w3.org/2000/svg" xmlns:xlink="http://www.w3.org/1999/xlink" x="0px" y="0px"
	 viewBox="0 0 161.7 54.8" enable-background="new 0 0 161.7 54.8" xml:space="preserve">
<g>
	<g>
		<g>
			<path fill="#353738" d="M60,13.7c0-0.2,0.2-0.4,0.4-0.4h10.9c6.1,0,8.9,3,8.9,7.5c0,3-1.4,4.9-3.2,6v0.1c1.9,0.7,3.7,3,3.7,6.3
				c0,5.5-3.7,8.1-9.7,8.1H60.4c-0.2,0-0.4-0.2-0.4-0.4V13.7z M70.6,24.7c2.3,0,3.7-1.2,3.7-3.3c0-2.1-1.4-3.2-3.7-3.2h-4.3
				c-0.2,0-0.2,0.1-0.2,0.2v6c0,0.2,0.1,0.2,0.2,0.2H70.6z M66.3,36.3h4.6c2.5,0,3.8-1.3,3.8-3.5c0-2.1-1.3-3.5-3.8-3.5h-4.6
				c-0.2,0-0.2,0.1-0.2,0.2v6.5C66,36.2,66.1,36.3,66.3,36.3"/>
			<path fill="#353738" d="M83.4,13.6c0-0.2,0.2-0.4,0.4-0.4h5.2c0.2,0,0.4,0.2,0.4,0.4v27.2c0,0.2-0.2,0.4-0.4,0.4h-5.2
				c-0.2,0-0.4-0.2-0.4-0.4V13.6z"/>
			<path fill="#353738" d="M100.1,41.2c-0.2,0-0.4-0.2-0.4-0.4V18.9c0-0.2-0.1-0.2-0.2-0.2h-7.1c-0.2,0-0.4-0.2-0.4-0.4v-4.6
				c0-0.2,0.2-0.4,0.4-0.4h20.7c0.2,0,0.4,0.2,0.4,0.4v4.6c0,0.2-0.2,0.4-0.4,0.4H106c-0.2,0-0.2,0.1-0.2,0.2v21.9
				c0,0.2-0.2,0.4-0.4,0.4H100.1z"/>
			<path fill="#353738" d="M114.1,37.9c-0.2-0.2-0.2-0.4-0.1-0.7l3.1-3.6c0.2-0.2,0.4-0.2,0.6,0c1.9,1.5,4.4,2.9,7.3,2.9
				c2.9,0,4.6-1.4,4.6-3.3c0-1.6-1-2.7-4.3-3.1l-1.5-0.2c-5.7-0.8-8.8-3.5-8.8-8.4c0-5.2,3.9-8.6,9.9-8.6c3.7,0,7.1,1.1,9.5,2.9
				c0.2,0.2,0.3,0.3,0.1,0.6l-2.5,3.7c-0.2,0.2-0.4,0.2-0.6,0.1c-2.1-1.4-4.2-2.1-6.5-2.1c-2.5,0-3.7,1.3-3.7,3
				c0,1.6,1.2,2.6,4.4,3.1l1.5,0.2c5.8,0.8,8.8,3.4,8.8,8.5c0,5.1-3.7,8.8-11,8.8C120.5,41.7,116.3,40,114.1,37.9"/>
			<path fill="#353738" d="M138.8,34.9c-0.6-1.9-0.8-3.5-0.8-7.6s0.2-5.7,0.8-7.6c1.4-4.5,5.3-6.8,10.2-6.8c4.9,0,8.8,2.3,10.2,6.8
				c0.6,1.9,0.8,3.5,0.8,7.6s-0.2,5.7-0.8,7.6c-1.4,4.5-5.3,6.8-10.2,6.8C144.1,41.7,140.3,39.4,138.8,34.9 M153.4,33.3
				c0.3-1,0.4-2.4,0.4-6s-0.1-5-0.4-6c-0.6-1.9-2.1-3.1-4.4-3.1c-2.3,0-3.8,1.2-4.4,3.1c-0.3,1-0.4,2.4-0.4,6s0.1,5,0.4,6
				c0.6,1.9,2.1,3.1,4.4,3.1C151.3,36.3,152.8,35.2,153.4,33.3"/>
			<path fill="#A5C88F" d="M27.2,3c-2,0-4,0.2-5.8,0.7C21.1,3.7,21,3.8,20.9,4c-0.1,0.2-0.2,0.4-0.2,0.5v14.9c0,0,0,0.3,0.1,0.4
				c0.1,0.1,0.3,0.1,0.5-0.1c1.7-1.2,3.7-1.9,5.9-1.9c5.7,0,10.3,4.6,10.3,10.3v0.2v22.2c0,0,0,0.2,0.1,0.3c0.1,0.1,0.2,0.1,0.4,0
				c8.5-4,14.5-12.7,14.5-22.8C52.3,14.3,41.1,3,27.2,3"/>
			<path fill="#5C4B51" d="M33.6,36.4c-0.1-0.1-0.2-0.1-0.4,0c-1.7,1.2-3.8,2-6,2c-5.7,0-10.3-4.6-10.3-10.3V2.5
				c0-0.2-0.1-0.4-0.2-0.6c-0.2-0.1-0.4-0.1-0.5-0.1H2.8C2.5,1.8,2.3,1.9,2.2,2C2.1,2.1,2,2.3,2,2.6c0,3.7,0,20.9,0,25.6
				c0,13.9,11.3,25.2,25.2,25.2c2.1,0,4-0.2,6-0.7c0.2-0.1,0.3-0.2,0.4-0.3c0.1-0.1,0.2-0.4,0.2-0.6v-15
				C33.7,36.8,33.7,36.5,33.6,36.4"/>
		</g>
	</g>
</g>
</svg>
